PathFileType	4	(X/Y/Z)	C:/Users/beibeiliu/ov580/test_trc/User2\sequence.33_training_dense_left.trc
DataRate	CameraRate	NumFrames	NumMarkers	Units	OrigDataRate	OrigDataStartFrame	OrigNumFrames
120	120	8	19	mm	120	319	424
Frame#	Time	ThumbCMC			ThumbMCP			ThumbIP			ThumbTip			IndexMCP			IndexPIP			IndexTip			MiddleMCP			MiddlePIP			MiddleTip			RingMCP			RingPIP			RingTip			PinkyMCP			PinkyPIP			PinkyTip			BackHand1			BackHand2			BackHand3	
		X0	Y0	Z0	X1	Y1	Z1	X2	Y2	Z2	X3	Y3	Z3	X4	Y4	Z4	X5	Y5	Z5	X6	Y6	Z6	X7	Y7	Z7	X8	Y8	Z8	X9	Y9	Z9	X10	Y10	Z10	X11	Y11	Z11	X12	Y12	Z12	X13	Y13	Z13	X14	Y14	Z14	X15	Y15	Z15	X16	Y16	Z16	X17	Y17	Z17	X18	Y18	Z18	
318	2.65	-188.781	4.31412	70.4213	-156.394	10.9574	71.6491	-118.462	3.9846	66.7889	-103.772	-19.5188	66.3328	-131.16	-42.9629	26.4753	-107.184	-41.9849	47.5267	-125.268	-32.0732	78.0762	-129.399	-62.411	35.3276	-112.2	-61.8645	65.515	-135.921	-40.3844	90.3443	-138.056	-78.45	50.3384	-121.641	-69.2434	79.0544	-150.813	-47.8338	94.6133	-148.833	-91.9777	68.0029	-138.214	-70.9628	92.5975	-162.338	-54.7978	100.941	-202.932	-68.4547	49.1491	-229.469	-56.698	67.198	-210.208	-28.7618	46.9152	
319	2.65833	-183.53	2.24939	70.8489	-151.84	9.69542	73.7522	-114.159	1.4536	69.2886	-101.148	-23.1146	68.5713	-128.235	-42.392	26.812	-107.774	-48.2912	48.8595	-127.693	-36.1946	79.2095	-129.444	-69.4679	37.776	-110.921	-61.3394	68.9528	-135.509	-43.1777	91.4425	-135.255	-81.4793	53.0865	-122.852	-73.5277	79.2255	-149.155	-51.9922	96.2674	-148.725	-90.9362	66.6678	-139.331	-77.8577	96.4337	-164.871	-55.4485	102.786	-197.266	-69.8648	46.8337	-227.971	-55.2417	65.43	-207.428	-31.0292	46.9711	
320	2.66667	-184.561	-0.886209	74.4081	-146.745	4.55827	73.1784	-112.435	-3.86875	70.6047	-96.2907	-28.6294	66.8459	-131.655	-46.7299	29.4505	-105.246	-49.7816	51.7501	-125.873	-33.802	81.1971	-133.019	-70.0115	38.1757	-110.929	-64.7842	69.6111	-139.308	-48.1029	92.3808	-134.112	-84.9804	54.7882	-123.86	-76.7459	83.9128	-153.031	-53.2962	96.4143	-150.087	-95.9988	67.5487	-138.24	-77.0237	93.9065	-166.615	-56.3885	101.702	-199.549	-71.8822	46.2226	-227.914	-55.9036	64.1038	-205.682	-28.5785	50.1481	
321	2.675	-178.662	-2.88809	72.9734	-143.835	7.08351	77.7823	-110.753	-3.97352	74.4417	-92.3206	-30.2075	70.6726	-125.963	-50.8763	32.7945	-104.708	-52.1524	53.111	-126.642	-37.7632	83.7247	-127.665	-70.0676	38.4713	-111.914	-70.497	67.9168	-137.924	-47.8893	91.9667	-136.42	-85.2362	52.2637	-123.288	-76.8887	82.4175	-149.864	-55.0429	94.9317	-151.809	-94.8826	65.5196	-140.369	-80.3094	96.3919	-165.574	-57.365	100.109	-199.019	-68.7973	47.7386	-227.321	-52.1202	63.8883	-203.403	-28.7591	48.5643	
322	2.68333	-178.529	-0.820341	78.4177	-140.1	1.92516	77.9761	-106.519	-7.09012	76.9056	-93.9304	-37.2272	72.2524	-123.7	-54.0933	34.7795	-105.866	-59.1358	56.619	-125.843	-44.5953	83.6296	-127.408	-70.8669	39.3527	-112.545	-74.7431	70.9296	-137.468	-46.3629	92.7985	-137.484	-90.3218	55.8266	-124.163	-82.1075	83.4162	-147.454	-58.3176	94.5048	-149.035	-96.9351	68.4094	-142.316	-82.9826	98.8708	-162.3	-60.8029	98.8082	-197.423	-65.2683	49.4084	-223.967	-52.6918	66.1005	-197.19	-30.8626	48.949	
323	2.69167	-172.403	-0.766822	77.7894	-139.795	0.63648	81.4567	-108.413	-12.1978	79.6908	-93.5634	-38.5947	75.6947	-124.031	-54.3037	34.8349	-102.351	-58.1502	57.0044	-126.316	-43.321	86.0012	-128.548	-73.7193	40.7993	-110.742	-73.7358	72.4412	-137.986	-48.4172	93.4683	-133.691	-90.2885	56.3254	-125.702	-86.0264	85.807	-151.759	-60.327	96.8923	-151.095	-98.899	68.4685	-140.95	-84.971	97.9336	-165.982	-61.5549	101.074	-201.307	-69.0727	49.6457	-221.817	-52.9691	65.709	-194.846	-25.614	50.0913	
324	2.7	-169.826	-2.28094	80.1777	-137.93	-3.5787	83.1822	-102.786	-16.1873	79.4581	-91.3051	-41.2912	77.2222	-124.868	-55.1194	35.9342	-104.936	-63.7692	60.7211	-124.389	-46.7743	86.9274	-130.871	-75.5457	40.7145	-112.635	-80.6774	72.6812	-136.771	-56.9125	95.3158	-134.788	-90.2171	56.7055	-124.685	-86.559	84.5979	-152.144	-61.3249	97.5421	-153.634	-99.6757	66.4874	-143.123	-88.0657	99.4901	-163.791	-62.4156	99.3909	-199.314	-68.6035	48.0845	-223.414	-51.6642	66.8907	-196.776	-27.1014	52.1532	
325	2.70833	-167.595	-1.60577	80.5028	-132.051	-1.50917	83.5673	-100.065	-19.3894	78.3564	-90.6389	-45.0665	76.5118	-124.043	-55.4466	37.6979	-104.249	-63.3904	62.8855	-124.335	-48.9642	87.9732	-127.676	-77.5965	42.7674	-113.618	-81.443	74.3527	-136.2	-54.9326	95.0134	-138.685	-93.7703	56.4881	-127.641	-88.1489	89.6044	-149.928	-62.1563	98.545	-152.91	-101.188	67.235	-142.513	-87.0339	99.3196	-165.016	-63.7667	101.381	-196.111	-66.2826	47.4832	-219.945	-51.7552	65.7169	-191.741	-24.7942	53.332	
